#N canvas 1619 40 964 737 12;
#X text 35 112 Loop antenna - 7bit CC (07) 2 Register:17h / Timbre:09h, f 65;
#X obj 437 166 r~ PITCH;
#X obj 674 161 r~ VOL;
#X floatatom 540 213 7 0 0 0 - - - 0;
#X obj 520 165 r fPITCH;
#X text 37 10 Media - MIDI Settings.. - select input port for OpenTheremin;
#X text 35 89 Rod antenna - 14bit CC (16-48) 1 Register:14h30 / Timbre:11h30, f 77;
#X text 36 34 Media - Audio Settings.. Sample rate:44100 / Block size: 256, f 69;
#X text 547 238 Pitch[Hz];
#X obj 761 163 r fVOL;
#X obj 840 280 vsl 15 128 0 1 0 0 empty empty empty 0 -9 0 10 #fcfcfc #000000 #000000 0 1;
#X obj 173 606 dac~;
#X obj 99 166 r fromGUI;
#X obj 99 190 route list;
#X obj 548 469 s toGUI;
#X msg 731 276 list /vol \$1;
#X obj 24 337 tgl 33 0 empty empty empty 17 7 0 10 #fcfcfc #000000 #000000 0 1;
#X msg 530 303 list /pitch \$1;
#X obj 500 397 *~;
#X obj 179 551 hip~ 5;
#X obj 106 478 line~ 0;
#X msg 106 450 \$1 300;
#X obj 107 396 * 0;
#X obj 120 347 t b f;
#X obj 108 255 s PFLT;
#X obj 178 255 s PRANGE;
#X obj 9 213 loadbang;
#X msg 13 244 0;
#X text 614 63 for Mobmuplat (iPhone/Android);
#X obj 434 226 osc_bank;
#X obj 308 228 route /waveform;
#X obj 411 526 loadbang;
#X msg 408 560 list /waveform wav0 wav1 wav2 wav3 wav4;
#X obj 410 596 s toGUI;
#X floatatom 388 278 5 0 0 0 - - - 0;
#X msg 276 326 list /wavelabel \$2;
#X obj 295 277 unpack 0 s;
#X obj 552 14 ./OpenTheremin_MIDI;
#N canvas 367 69 824 602 reverb 0;
#X obj 36 21 inlet~;
#X obj 36 45 reverb-echo echo-del1 5.43216;
#X obj 243 233 +~;
#X obj 285 233 +~;
#X obj 54 359 outlet~;
#X obj 124 359 outlet~;
#X obj 243 297 +~;
#X obj 348 298 +~;
#X obj 285 297 -~;
#X obj 387 297 -~;
#X obj 242 366 +~;
#X obj 286 367 +~;
#X obj 330 368 -~;
#X obj 369 368 -~;
#X obj 330 450 *~ 0;
#X obj 286 449 *~ 0;
#X obj 242 448 *~ 0;
#X obj 369 451 *~ 0;
#X obj 519 333 inlet;
#X obj 519 405 / 200;
#X obj 519 357 min 100;
#X obj 519 380 max 0;
#X obj 242 559 delwrite~ loop-del1 60;
#X obj 286 536 delwrite~ loop-del2 71.9345;
#X obj 369 489 delwrite~ loop-del4 95.945;
#X obj 261 172 delread~ loop-del1 60;
#X obj 303 198 delread~ loop-del2 71.9345;
#X obj 405 249 delread~ loop-del4 95.945;
#X obj 387 224 delread~ loop-del3 86.7545;
#X obj 330 513 delwrite~ loop-del3 86.7545;
#X obj 36 69 reverb-echo echo-del2 8.45346;
#X obj 36 93 reverb-echo echo-del3 13.4367;
#X obj 36 117 reverb-echo echo-del4 21.5463;
#X obj 36 141 reverb-echo echo-del5 34.3876;
#X obj 36 165 reverb-echo echo-del6 55.5437;
#X text 256 49 "early echo" generators \, which also increase echo density. Open one to see what they do., f 44;
#X text 260 128 Get the outputs of the recirculating delays. Add the inputs to two of them., f 38;
#X text 420 287 Do a power-conserving mix of them in pairs. First combine (1 \, 2) and (3 \, 4)..., f 41;
#X text 403 361 ...then (1 \, 3) and (2 \, 4), f 14;
#X text 428 444 The two mixing stages have a combined gain of 2 \, so the recirculation gain is limited to 0.5., f 48;
#X text 34 379 Tap outputs from here.;
#X text 581 348 feedback gain on a scale of 0 to 100 to control reverb time., f 30;
#X text 539 516 Put the signals back into the recirculating delays., f 25;
#X connect 0 0 1 0;
#X connect 1 0 30 0;
#X connect 1 1 30 1;
#X connect 2 0 4 0;
#X connect 2 0 6 0;
#X connect 2 0 8 0;
#X connect 3 0 5 0;
#X connect 3 0 6 1;
#X connect 3 0 8 1;
#X connect 6 0 10 0;
#X connect 6 0 12 0;
#X connect 7 0 12 1;
#X connect 7 0 10 1;
#X connect 8 0 11 0;
#X connect 8 0 13 0;
#X connect 9 0 11 1;
#X connect 9 0 13 1;
#X connect 10 0 16 0;
#X connect 11 0 15 0;
#X connect 12 0 14 0;
#X connect 13 0 17 0;
#X connect 14 0 29 0;
#X connect 15 0 23 0;
#X connect 16 0 22 0;
#X connect 17 0 24 0;
#X connect 18 0 20 0;
#X connect 19 0 17 1;
#X connect 19 0 16 1;
#X connect 19 0 15 1;
#X connect 19 0 14 1;
#X connect 20 0 21 0;
#X connect 21 0 19 0;
#X connect 25 0 2 1;
#X connect 26 0 3 1;
#X connect 27 0 7 1;
#X connect 27 0 9 1;
#X connect 28 0 7 0;
#X connect 28 0 9 0;
#X connect 30 0 31 0;
#X connect 30 1 31 1;
#X connect 31 0 32 0;
#X connect 31 1 32 1;
#X connect 32 0 33 0;
#X connect 32 1 33 1;
#X connect 33 0 34 0;
#X connect 33 1 34 1;
#X connect 34 0 2 0;
#X connect 34 1 3 0;
#X restore 238 484 pd reverb;
#X obj 106 231 route /pfilter /prange /rev;
#X obj 245 253 s REV;
#X obj 289 395 r REV;
#X obj 291 432 * 100;
#X obj 683 388 r PRANGE;
#X floatatom 683 435 5 0 0 0 - - - 0;
#X floatatom 186 330 5 0 0 0 - - - 0;
#X obj 41 295 route /mute /vol;
#X obj 178 529 *~;
#X msg 231 400 0.5;
#X connect 1 0 29 0;
#X connect 2 0 18 1;
#X connect 4 0 17 0;
#X connect 4 0 3 0;
#X connect 9 0 10 0;
#X connect 9 0 15 0;
#X connect 12 0 13 0;
#X connect 13 0 30 0;
#X connect 13 0 39 0;
#X connect 13 0 46 0;
#X connect 15 0 14 0;
#X connect 16 0 22 0;
#X connect 17 0 14 0;
#X connect 18 0 38 0;
#X connect 19 0 11 0;
#X connect 19 0 11 1;
#X connect 20 0 47 1;
#X connect 21 0 20 0;
#X connect 22 0 21 0;
#X connect 23 0 22 0;
#X connect 23 1 22 1;
#X connect 26 0 27 0;
#X connect 27 0 16 0;
#X connect 29 0 18 0;
#X connect 30 0 35 0;
#X connect 30 0 36 0;
#X connect 31 0 32 0;
#X connect 32 0 33 0;
#X connect 34 0 29 1;
#X connect 35 0 14 0;
#X connect 36 0 34 0;
#X connect 38 0 47 0;
#X connect 39 0 24 0;
#X connect 39 1 25 0;
#X connect 39 2 40 0;
#X connect 41 0 42 0;
#X connect 42 0 38 1;
#X connect 43 0 44 0;
#X connect 46 0 16 0;
#X connect 46 1 23 0;
#X connect 46 1 45 0;
#X connect 47 0 19 0;
#X connect 48 0 42 0;
