#N canvas 0 300 603 561 12;
#X obj 110 104 inlet;
#X obj 256 110 inlet;
#X obj 173 468 outlet;
#X obj 305 109 inlet;
#X obj 354 110 inlet;
#X obj 401 110 inlet;
#X obj 268 177 f \$1;
#X obj 310 176 f \$2;
#X obj 353 174 f \$3;
#X obj 398 175 f \$4;
#X obj 224 314 expr $f4+($f1-$f2)/($f3-$f2)*($f5-$f4);
#X obj 473 104 loadbang;
#X connect 0 0 10 0;
#X connect 1 0 6 0;
#X connect 3 0 7 0;
#X connect 4 0 8 0;
#X connect 5 0 9 0;
#X connect 6 0 10 1;
#X connect 7 0 10 2;
#X connect 8 0 10 3;
#X connect 9 0 10 4;
#X connect 10 0 2 0;
#X connect 11 0 6 0;
#X connect 11 0 9 0;
#X connect 11 0 7 0;
#X connect 11 0 8 0;
