#N canvas 351 26 844 846 12;
#X obj 94 14 key;
#X obj 94 37 route 27 49 50 51 52 53;
#X obj 84 136 route 113 119 101 114 116 121;
#X obj 92 235 route 97 115 100 102 103 104;
#X obj 99 338 route 122 120 99 98 32;
#X obj 37 82 s K11;
#X obj 84 82 s K12;
#X obj 132 82 s K13;
#X obj 182 82 s K14;
#X obj 233 82 s K15;
#X obj 282 82 s K16;
#X obj 42 178 s K21;
#X obj 89 178 s K22;
#X obj 137 178 s K23;
#X obj 187 178 s K24;
#X obj 238 178 s K25;
#X obj 287 178 s K26;
#X obj 49 283 s K31;
#X obj 96 283 s K32;
#X obj 144 283 s K33;
#X obj 194 283 s K34;
#X obj 245 283 s K35;
#X obj 294 283 s K36;
#X obj 62 381 s K41;
#X obj 109 381 s K42;
#X obj 157 381 s K43;
#X obj 207 381 s K44;
#X obj 258 381 s K45;
#X connect 0 0 1 0;
#X connect 1 0 5 0;
#X connect 1 1 6 0;
#X connect 1 2 7 0;
#X connect 1 3 8 0;
#X connect 1 4 9 0;
#X connect 1 5 10 0;
#X connect 1 6 2 0;
#X connect 2 0 11 0;
#X connect 2 1 12 0;
#X connect 2 2 13 0;
#X connect 2 3 14 0;
#X connect 2 4 15 0;
#X connect 2 5 16 0;
#X connect 2 6 3 0;
#X connect 3 0 17 0;
#X connect 3 1 18 0;
#X connect 3 2 19 0;
#X connect 3 3 20 0;
#X connect 3 4 21 0;
#X connect 3 5 22 0;
#X connect 3 6 4 0;
#X connect 4 0 23 0;
#X connect 4 1 24 0;
#X connect 4 2 25 0;
#X connect 4 3 26 0;
#X connect 4 4 27 0;
