#N canvas 1849 -103 1329 809 12;
#X msg 230 309 240 67 121 9 17 10 0 \$1 247;
#X obj 759 29 r MIKU;
#X obj 230 355 s MIKU;
#X floatatom 229 288 5 0 0 0 - - - 0;
#X text 308 116 Lyric;
#X obj 775 424 delay 10;
#X obj 127 626 s MIKU;
#X text 801 648 NoteOn \, Note \, Vel;
#X floatatom 849 571 5 0 0 0 - - - 0;
#X msg 795 628 144 \$1 \$2;
#X obj 796 597 pack 0 0;
#X obj 815 512 loadbang;
#X msg 816 537 90;
#X text 852 545 VOLUME;
#X floatatom 774 476 5 0 0 0 - - - 0;
#X text 814 479 NOTE;
#X obj 775 451 else/rand.i 32 68;
#X obj 663 149 cyclone/coll dict1;
#C restore;
#X msg 663 125 read ./coll.txt;
#X obj 607 76 loadbang;
#X obj 530 157 coll lyric;
#C restore;
#X msg 476 158 length;
#X obj 574 185 bng 19 250 50 0 empty empty empty 0 -10 0 12 #fcfcfc #000000 #000000;
#X obj 531 221 s LYRIC_LEN;
#X obj 246 159 counter 0 10;
#X obj 326 137 r LYRIC_LEN;
#X obj 774 399 bng 19 250 50 0 empty empty empty 0 -10 0 12 #fcfcfc #000000 #000000;
#X obj 247 193 coll lyric;
#C restore;
#X obj 236 250 coll dict1;
#C restore;
#X msg 192 133 set 0;
#X obj 155 26 loadbang;
#X msg 175 583 128 \$1 0;
#X obj 175 558 i;
#X obj 179 508 bng 19 250 50 0 empty empty empty 0 -10 0 12 #fcfcfc #000000 #000000;
#X text 246 585 Note Off;
#X obj 325 432 r fPITCH;
#X floatatom 400 650 7 0 0 0 - - - 0;
#X msg 127 507 60;
#X msg 82 581 144 \$1 90;
#X obj 68 338 loadbang;
#X obj 70 362 delay 100;
#X obj 323 585 i;
#X obj 246 28 key;
#X obj 199 437 bng 19 250 50 0 empty empty empty 0 -10 0 12 #fcfcfc #000000 #000000;
#X obj 570 442 r fVOL;
#X obj 558 637 i;
#X obj 323 562 line 0;
#X obj 557 556 line 0;
#X floatatom 579 688 5 0 0 0 - - - 0;
#X floatatom 590 480 5 0 0 0 - - - 0;
#X floatatom 354 473 7 0 0 0 - - - 0;
#X obj 323 230 s TXT;
#X obj 246 133 bng 19 250 50 0 empty empty empty 0 -10 0 12 #fcfcfc #000000 #000000;
#X obj 557 510 cyclone/scale 0 1 0 127;
#X floatatom 429 475 5 0 0 0 - - - 0;
#X floatatom 471 475 5 0 0 0 - - - 0;
#X obj 556 723 ctlout 7 1;
#X obj 329 733 bendout 1;
#X floatatom 278 28 5 0 0 0 - - - 0;
#X obj 759 74 midiout 0;
#X msg 323 539 \$1 7;
#X msg 557 533 \$1 7;
#X obj 505 392 bng 19 250 50 0 empty empty empty 0 -10 0 12 #fcfcfc #000000 #000000;
#X msg 1206 231 open;
#X obj 862 198 tgl 33 0 empty empty empty 17 7 0 10 #fcfcfc #000000 #000000 0 1;
#X obj 864 317 output~;
#X obj 246 56 route 32 110 112 113;
#X text 318 28 SPC/N/P/Q;
#X obj 158 238 print;
#X text 531 393 Bang for NEXT;
#X obj 822 29 ./OpenTheremin_MIDI;
#X obj 323 516 cyclone/scale 30 5600 -8192 8192;
#X obj 1026 358 s \$0-hsl-set;
#X msg 1018 323 0.7;
#X msg 1003 223 level 1;
#X obj 1022 161 loadbang;
#X msg 863 173 1;
#X obj 987 24 ./keypad;
#X obj 862 138 r K21;
#X obj 964 462 ctlin;
#X obj 955 503 pack f f;
#X msg 950 530 \$2 \$1;
#X obj 950 565 route 23;
#X obj 951 589 route 127;
#X obj 956 623 bng 19 250 50 0 empty empty empty 0 -10 0 12 #fcfcfc #000000 #000000;
#X msg 531 127 read ./lcode.txt;
#X text 1171 96 Start GENKI SW;
#X obj 1067 456 cyclone/seq melo.mid;
#X obj 1075 388 sel 1 0;
#X obj 1066 430 bng 19 250 50 0 empty empty empty 0 -10 0 12 #fcfcfc #000000 #000000;
#X obj 1085 588 cyclone/midiparse;
#X obj 1085 560 cyclone/midiflush;
#X msg 1099 417 stop;
#X msg 1153 416 bang;
#X obj 1002 659 route 144;
#X obj 1001 697 print;
#X text 850 95 Media > MIDI Settings.. > Input Devices = XIAO RP2040 / Logic Pro Virtual Out Output Devices = NSX-39;
#X obj 821 256 pipe 130;
#X obj 864 289 else/player~ 2 oke.aif 0 0;
#X obj 907 150 r K22;
#X msg 907 173 0;
#X msg 1085 613 \$2 \$1;
#X obj 1087 637 route 0;
#X obj 1135 664 bng 19 250 50 0 empty empty empty 0 -10 0 12 #fcfcfc #000000 #000000;
#X connect 0 0 2 0;
#X connect 0 0 43 0;
#X connect 1 0 59 0;
#X connect 3 0 0 0;
#X connect 5 0 16 0;
#X connect 8 0 10 1;
#X connect 10 0 9 0;
#X connect 11 0 12 0;
#X connect 12 0 8 0;
#X connect 14 0 10 0;
#X connect 16 0 14 0;
#X connect 18 0 17 0;
#X connect 19 0 18 0;
#X connect 19 0 85 0;
#X connect 20 0 23 0;
#X connect 20 2 22 0;
#X connect 21 0 20 0;
#X connect 22 0 21 0;
#X connect 24 0 27 0;
#X connect 25 0 24 4;
#X connect 26 0 5 0;
#X connect 27 0 28 0;
#X connect 27 0 51 0;
#X connect 27 0 68 0;
#X connect 28 0 3 0;
#X connect 29 0 24 0;
#X connect 30 0 29 0;
#X connect 31 0 6 0;
#X connect 32 0 31 0;
#X connect 33 0 32 0;
#X connect 35 0 50 0;
#X connect 35 0 71 0;
#X connect 37 0 38 0;
#X connect 37 0 32 1;
#X connect 38 0 6 0;
#X connect 39 0 40 0;
#X connect 40 0 37 0;
#X connect 40 0 33 0;
#X connect 41 0 36 0;
#X connect 41 0 57 0;
#X connect 42 0 58 0;
#X connect 42 0 66 0;
#X connect 43 0 37 0;
#X connect 44 0 49 0;
#X connect 44 0 53 0;
#X connect 45 0 56 0;
#X connect 45 0 48 0;
#X connect 46 0 41 0;
#X connect 47 0 45 0;
#X connect 52 0 24 0;
#X connect 53 0 61 0;
#X connect 54 0 71 1;
#X connect 55 0 71 2;
#X connect 60 0 46 0;
#X connect 61 0 47 0;
#X connect 62 0 52 0;
#X connect 63 0 98 0;
#X connect 64 0 88 0;
#X connect 64 0 97 0;
#X connect 66 0 29 0;
#X connect 66 1 52 0;
#X connect 66 3 33 0;
#X connect 71 0 60 0;
#X connect 73 0 72 0;
#X connect 74 0 65 0;
#X connect 75 0 74 0;
#X connect 76 0 64 0;
#X connect 78 0 76 0;
#X connect 78 0 29 0;
#X connect 79 0 80 0;
#X connect 79 1 80 1;
#X connect 80 0 81 0;
#X connect 81 0 82 0;
#X connect 81 0 94 0;
#X connect 82 0 83 0;
#X connect 83 0 84 0;
#X connect 85 0 20 0;
#X connect 87 0 91 0;
#X connect 88 0 89 0;
#X connect 88 1 92 0;
#X connect 88 1 93 0;
#X connect 89 0 87 0;
#X connect 90 0 101 0;
#X connect 91 0 90 0;
#X connect 92 0 87 0;
#X connect 93 0 91 0;
#X connect 94 0 95 0;
#X connect 97 0 98 0;
#X connect 98 0 65 0;
#X connect 98 1 65 1;
#X connect 99 0 100 0;
#X connect 100 0 64 0;
#X connect 101 0 102 0;
#X connect 102 1 103 0;
#X connect 103 0 62 0;
