#N canvas 227 109 1213 660 12;
#X msg 169 387 240 67 121 9 17 10 0 \$1 247;
#X obj 1046 39 r MIKU;
#X obj 167 414 s MIKU;
#X floatatom 168 366 5 0 0 0 - - - 0;
#X text 233 206 Lyric;
#X obj 88 586 s MIKU;
#X obj 958 183 cyclone/coll dict1;
#C restore;
#X msg 958 159 read ./coll.txt;
#X obj 904 39 loadbang;
#X obj 864 125 coll lyric;
#C restore;
#X msg 810 126 length;
#X obj 907 144 bng 19 250 50 0 empty empty empty 0 -10 0 12 #fcfcfc #000000 #000000;
#X obj 864 173 s LYRIC_LEN;
#X obj 251 227 r LYRIC_LEN;
#X obj 172 283 coll lyric;
#C restore;
#X obj 170 340 coll dict1;
#C restore;
#X msg 117 209 set 0;
#X obj 117 121 loadbang;
#X msg 123 545 128 \$1 0;
#X obj 123 518 i;
#X obj 134 478 bng 30 250 50 0 empty empty empty 0 -10 0 12 #ff0400 #000000 #000000;
#X text 173 486 Note Off;
#X obj 807 348 r fPITCH;
#X floatatom 818 498 7 0 0 0 - - - 0;
#X msg 81 487 60;
#X msg 43 547 144 \$1 90;
#X obj 58 416 loadbang;
#X obj 60 440 delay 100;
#X obj 808 474 i;
#X obj 142 148 key;
#X obj 131 416 bng 19 250 50 0 empty empty empty 0 -10 0 12 #fcfcfc #000000 #000000;
#X obj 610 341 r fVOL;
#X obj 596 480 i;
#X obj 808 451 line 0;
#X obj 597 455 line 0;
#X floatatom 620 508 5 0 0 0 - - - 0;
#X floatatom 630 379 5 0 0 0 - - - 0;
#X floatatom 816 375 7 0 0 0 - - - 0;
#X obj 201 310 s TXT;
#X obj 171 223 bng 19 250 50 0 empty empty empty 0 -10 0 12 #fcfcfc #000000 #000000;
#X floatatom 914 364 5 0 0 0 - - - 0;
#X floatatom 956 364 7 0 0 0 - - - 0;
#X obj 597 532 ctlout 7 1;
#X obj 809 524 bendout 1;
#X floatatom 174 148 5 0 0 0 - - - 0;
#X obj 1046 69 midiout 0;
#X msg 808 428 \$1 7;
#X msg 597 432 \$1 7;
#X obj 406 397 bng 19 250 50 0 empty empty empty 0 -10 0 12 #fcfcfc #000000 #000000;
#X obj 367 100 tgl 33 0 empty empty empty 17 7 0 10 #ff0400 #000000 #000000 0 1;
#X obj 609 233 output~;
#X obj 143 174 route 32 110 112 113;
#X text 214 148 SPC/N/P/Q;
#X text 432 398 Bang for NEXT;
#X obj 539 36 ./OpenTheremin_MIDI;
#X msg 694 174 level 1;
#X obj 695 150 loadbang;
#X msg 368 75 1;
#X msg 865 95 read ./lcode.txt;
#X obj 392 251 cyclone/seq melo.mid;
#X obj 400 183 sel 1 0;
#X obj 391 225 bng 19 250 50 0 empty empty empty 0 -10 0 12 #fcfcfc #000000 #000000;
#X obj 406 314 cyclone/midiparse;
#X obj 406 286 cyclone/midiflush;
#X msg 424 212 stop;
#X msg 471 214 bang;
#X obj 609 179 pipe 130;
#X obj 609 205 else/player~ 2 oke.aif 0 0;
#X msg 412 75 0;
#X msg 406 339 \$2 \$1;
#X obj 408 363 route 0;
#X obj 597 409 cyclone/scale 0.2 1 0 127;
#X obj 808 405 cyclone/scale 30 6000 -8192 8192;
#X msg 915 343 200;
#X msg 956 342 4000;
#X obj 116 311 print >;
#X text 46 7 MIDI設定 Media > MIDI Settings.. > Input Devices = XIAO RP2040 Output Devices = NSX-39;
#X obj 171 249 counter 0 30;
#X obj 920 293 loadbang;
#X obj 540 66 ./OT_dummy;
#X text 40 70 Install externals: hcs \, cyclone \, else \,;
#X text 358 50 Start / Stop;
#X connect 0 0 2 0;
#X connect 0 0 30 0;
#X connect 1 0 45 0;
#X connect 3 0 0 0;
#X connect 7 0 6 0;
#X connect 8 0 7 0;
#X connect 8 0 58 0;
#X connect 9 0 12 0;
#X connect 9 2 11 0;
#X connect 10 0 9 0;
#X connect 11 0 10 0;
#X connect 13 0 77 4;
#X connect 14 0 15 0;
#X connect 14 0 38 0;
#X connect 14 0 75 0;
#X connect 15 0 3 0;
#X connect 16 0 77 0;
#X connect 17 0 16 0;
#X connect 18 0 5 0;
#X connect 19 0 18 0;
#X connect 20 0 19 0;
#X connect 22 0 37 0;
#X connect 22 0 72 0;
#X connect 24 0 25 0;
#X connect 24 0 19 1;
#X connect 25 0 5 0;
#X connect 26 0 27 0;
#X connect 27 0 24 0;
#X connect 27 0 20 0;
#X connect 28 0 23 0;
#X connect 28 0 43 0;
#X connect 29 0 44 0;
#X connect 29 0 51 0;
#X connect 30 0 24 0;
#X connect 31 0 36 0;
#X connect 31 0 71 0;
#X connect 32 0 42 0;
#X connect 32 0 35 0;
#X connect 33 0 28 0;
#X connect 34 0 32 0;
#X connect 39 0 77 0;
#X connect 40 0 72 1;
#X connect 41 0 72 2;
#X connect 46 0 33 0;
#X connect 47 0 34 0;
#X connect 48 0 39 0;
#X connect 49 0 60 0;
#X connect 49 0 66 0;
#X connect 51 0 16 0;
#X connect 51 1 39 0;
#X connect 51 3 20 0;
#X connect 55 0 50 0;
#X connect 56 0 55 0;
#X connect 57 0 49 0;
#X connect 57 0 16 0;
#X connect 58 0 9 0;
#X connect 59 0 63 0;
#X connect 60 0 61 0;
#X connect 60 1 64 0;
#X connect 60 1 65 0;
#X connect 61 0 59 0;
#X connect 62 0 69 0;
#X connect 63 0 62 0;
#X connect 64 0 59 0;
#X connect 65 0 63 0;
#X connect 66 0 67 0;
#X connect 67 0 50 0;
#X connect 67 1 50 1;
#X connect 68 0 49 0;
#X connect 69 0 70 0;
#X connect 70 1 48 0;
#X connect 71 0 47 0;
#X connect 72 0 46 0;
#X connect 73 0 40 0;
#X connect 74 0 41 0;
#X connect 77 0 14 0;
#X connect 78 0 73 0;
#X connect 78 0 74 0;
