#N canvas 1862 296 474 487 12;
#X obj 110 13 loadbang;
#X msg 89 48 poll;
#X obj 108 79 mousestate;
#X msg 131 47 reset;
#X floatatom 46 205 5 0 0 0 - - - 0;
#X msg 36 242 \$1 12;
#X obj 33 290 line~ 0;
#X obj 34 383 s~ PITCH;
#X floatatom 198 201 5 0 0 0 - - - 0;
#X obj 103 241 s fPITCH;
#X msg 195 242 \$1 12;
#X obj 196 293 line~ 0;
#X obj 258 241 s fVOL;
#X obj 196 384 s~ VOL;
#X obj 203 37 hcs/screensize;
#X obj 46 132 cyclone/scale 0 1900 10 3000;
#X obj 199 159 cyclone/scale 900 0 0 1;
#X connect 0 0 3 0;
#X connect 0 0 1 0;
#X connect 0 0 14 0;
#X connect 1 0 2 0;
#X connect 2 1 15 0;
#X connect 2 2 16 0;
#X connect 3 0 2 0;
#X connect 4 0 5 0;
#X connect 4 0 9 0;
#X connect 5 0 6 0;
#X connect 6 0 7 0;
#X connect 8 0 10 0;
#X connect 8 0 12 0;
#X connect 10 0 11 0;
#X connect 11 0 13 0;
#X connect 14 0 15 2;
#X connect 14 1 16 1;
#X connect 15 0 4 0;
#X connect 16 0 8 0;
