#N canvas 138 195 959 749 12;
#X obj 24 395 vstplugin~;
#X obj 23 366 r \$0-msg;
#X obj 214 380 s \$0-msg;
#X msg 220 280 vis \$1;
#X obj 221 255 tgl 19 0 empty empty empty 0 -10 0 12 #fcfcfc #000000 #000000 0 1;
#N canvas 729 204 424 485 output 0;
#X obj 109 258 nbx 5 14 -100 0 0 0 \$0-vol \$0-vol Volume 0 -8 0 10 #fcfcfc #000000 #000000 0 256;
#X obj 170 257 tgl 15 0 \$0-dsp \$0-dsp DSP 17 7 0 10 #fcfcfc #000000 #000000 0 1;
#X obj 22 -24 inlet~;
#X obj 89 -24 inlet~;
#X obj 21 440 dac~;
#X obj 22 406 *~;
#X obj 88 403 *~;
#X obj 103 380 line~;
#X msg 105 358 \$1 50;
#X obj 147 30 loadbang;
#X msg 193 314 \; pd dsp \$1;
#X obj 136 114 vu 15 120 empty empty -1 -8 0 10 #404040 #000000 1 0;
#X obj 193 116 vu 15 120 empty empty -1 -8 0 10 #404040 #000000 1 0;
#X obj 30 45 env~;
#X obj 96 44 env~;
#X obj 30 66 - 100;
#X obj 97 69 - 100;
#X obj 110 110 vsl 15 128 0 1 0 0 \$0-fader \$0-fader empty 0 -9 0 10 #fcfcfc #000000 #000000 0 1;
#X obj 193 291 r \$0-dsp;
#X msg 147 51 0;
#X obj 147 73 s \$0-fader;
#X obj 106 290 r \$0-fader;
#X obj 105 310 pow 2;
#X obj 163 360 rmstodb;
#X obj 163 381 - 100;
#X obj 163 402 s \$0-vol;
#X obj 105 331 t f f;
#X obj 21 -1 clip~ -1 1;
#X obj 88 -1 clip~ -1 1;
#X obj 21 20 hip~ 5;
#X obj 88 20 hip~ 5;
#X connect 2 0 27 0;
#X connect 3 0 28 0;
#X connect 5 0 4 0;
#X connect 6 0 4 1;
#X connect 7 0 5 1;
#X connect 7 0 6 1;
#X connect 8 0 7 0;
#X connect 9 0 19 0;
#X connect 13 0 15 0;
#X connect 14 0 16 0;
#X connect 15 0 11 0;
#X connect 16 0 12 0;
#X connect 18 0 10 0;
#X connect 19 0 20 0;
#X connect 21 0 22 0;
#X connect 22 0 26 0;
#X connect 23 0 24 0;
#X connect 24 0 25 0;
#X connect 26 0 8 0;
#X connect 26 1 23 0;
#X connect 27 0 29 0;
#X connect 28 0 30 0;
#X connect 29 0 13 0;
#X connect 29 0 5 0;
#X connect 30 0 14 0;
#X connect 30 0 6 0;
#X coords 0 -1 1 1 150 180 2 100 100;
#X restore 23 456 pd output;
#N canvas 101 355 513 414 message-out 0;
#X obj 20 17 inlet;
#X obj 20 63 s \$0-program-data;
#X obj 20 40 route program_data bank_data, f 39;
#X obj 135 63 s \$0-bank-data;
#X obj 278 135 print;
#X obj 278 114 spigot 1;
#X obj 337 114 tgl 15 0 empty empty empty 17 7 0 10 #fcfcfc #000000 #000000 0 1;
#X text 358 113 print messages;
#X obj 251 86 s \$0-out;
#X obj 251 63 t a a;
#X msg 28 178 param_automated <index> <value>;
#X msg 28 204 latency <numsamples>;
#X msg 30 257 midi <bytes...>;
#X msg 29 284 sysex <bytes...>;
#X text 233 172 a parameter has been changed in the GUI (or by changing a linked parameter)., f 40;
#X text 162 204 the plugin's internal processing latency has changed;
#X text 139 257 a MIDI message sent by the plugin;
#X text 139 284 a SysEx message sent by the plugin;
#X text 28 153 events:;
#X text 163 222 NOTE: the value includes the additional latency caused by multithreading (see the "-t" flag for "open"), f 55;
#X msg 29 337 crash;
#X text 312 85 goes to vstpresetbrowser;
#X text 23 87 see [pd preset];
#X text 83 338 the plugin subprocess has crashed.;
#X text 84 356 This is only sent for bridged or sandboxed plugins \, because normal plugins would simply crash Pd., f 52;
#X msg 29 311 update;
#X text 87 312 multiple parameters have changed internally;
#X connect 0 0 2 0;
#X connect 2 0 1 0;
#X connect 2 1 3 0;
#X connect 2 2 9 0;
#X connect 5 0 4 0;
#X connect 6 0 5 1;
#X connect 9 0 8 0;
#X connect 9 1 5 0;
#X restore 38 428 pd message-out;
#N canvas 813 319 627 553 parameter 0;
#X obj 100 76 nbx 5 14 -1e+37 1e+37 0 0 empty empty empty 0 -8 0 10 #fcfcfc #000000 #000000 0 256;
#X obj 19 18 nbx 5 14 -1e+37 1e+37 0 0 empty empty empty 0 -8 0 10 #fcfcfc #000000 #000000 0 256;
#X msg 19 124 param_set \$1 \$2;
#X obj 39 249 nbx 5 14 -1e+37 1e+37 0 0 empty empty empty 0 -8 0 10 #fcfcfc #000000 #000000 0 256;
#X msg 50 357 param_count;
#X msg 54 412 param_list;
#X msg 30 190 param_get \$1;
#X obj 30 166 nbx 5 14 -1e+37 1e+37 0 0 empty empty empty 0 -8 0 10 #fcfcfc #000000 #000000 0 256;
#X msg 56 464 param_dump;
#X obj 19 518 s \$0-msg;
#X text 158 75 index;
#X text 124 123 set parameter;
#X text 96 249 index;
#X text 131 357 get number of parameters;
#X symbolatom 27 40 10 0 0 0 - - - 0;
#X text 82 16 float value (0.0 - 1.0);
#X text 268 17 a VST parameter can take two forms:;
#X text 95 37 string value (not supported by all plugins), f 26;
#X text 269 79 2) a string representation which is mainly used for display \, but many plugins also allow you to set the parameter in this way. it corresponds to the symbol box in the generic editor., f 47;
#X text 268 37 1) a 'normalized' float value which is always in the range 0 to 1 and corresponds to the slider position in the generic editor., f 47;
#X obj 19 98 list prepend 0;
#X msg 39 269 param_info \$1;
#X text 128 269 get parameter info;
#X text 44 315 the label is the unit of measurement \, e.g. dB \, ms, f 50;
#X text 44 332 in the future \, more info might be added;
#X text 127 412 get all parameter info;
#X text 131 464 get all parameter state;
#X symbolatom 128 96 10 0 0 0 - - - 0;
#X symbolatom 92 166 10 0 0 0 - - - 0;
#X text 28 149 index;
#X text 91 147 name;
#X text 114 189 get parameter;
#X text 204 98 name;
#X text 271 132 Each parameter can be accessed by either its index or name (with whitespace replaced with underscores), f 46;
#X obj 270 176 cnv 20 285 65 empty empty empty 20 12 0 14 #f8fc00 #404040 0;
#X text 278 184 NOTE: The [param_set( message is scheduled at the current logical time. This allows for *sample accurate* automation of VST3 plugins - but the plugin has to actually support it!, f 44;
#X text 33 209 responds with;
#X text 45 292 responds with;
#X text 53 381 responds with;
#X text 59 433 responds with a series of;
#X msg 219 432 param_info;
#X text 292 433 messages;
#X text 61 486 responds with a series of;
#X text 295 485 messages;
#X msg 221 485 param_state;
#X text 333 400 is sent through the rightmost outlet.;
#X msg 121 212 param_state <index> <value> >display>, f 20;
#X msg 131 293 param_info <index> <name> <label> ...;
#X msg 140 380 param_count <count>;
#X text 333 348 When you edit parameters in the GUI or automate linked parameters \,, f 34;
#X msg 336 379 param_automated <index> <value>;
#X connect 0 0 20 1;
#X connect 1 0 20 0;
#X connect 2 0 9 0;
#X connect 3 0 21 0;
#X connect 4 0 9 0;
#X connect 5 0 9 0;
#X connect 6 0 9 0;
#X connect 7 0 6 0;
#X connect 8 0 9 0;
#X connect 14 0 20 0;
#X connect 20 0 2 0;
#X connect 21 0 9 0;
#X connect 27 0 20 1;
#X connect 28 0 6 0;
#X restore 214 425 pd parameter;
#N canvas 831 117 609 578 midi 0;
#X obj 33 466 s \$0-msg;
#X msg 33 34 midi_raw <list>;
#X msg 51 111 midi_note 1 60 127;
#X msg 62 171 midi_noteoff 1 60;
#X msg 70 229 midi_cc 1 64 \$1;
#X msg 70 206 127;
#X msg 102 206 0;
#X msg 40 59 midi_sysex <list>;
#X msg 76 288 midi_bend 1 \$1;
#X obj 79 264 hsl 128 15 -1 1 0 0 empty empty empty -2 -8 0 10 #fcfcfc #000000 #000000 0 1;
#X obj 82 320 nbx 5 14 -1e+37 1e+37 0 0 empty empty empty 0 -8 0 10 #fcfcfc #000000 #000000 0 256;
#X text 136 35 send raw MIDI message (list of bytes);
#X text 155 59 send MIDI system exclusive message (list of bytes);
#X text 49 89 convenience methods:;
#X text 179 111 note on: channel (1-16) \, pitch \, velocity;
#X text 182 172 note off: channel \, pitch \, [velocity];
#X text 182 229 CC: channel \, number \, value;
#X text 129 207 (sustain pedal on/off);
#X text 175 289 pitchbend: channel \, bend (-1 to 1);
#X text 203 340 program change: channel \, program;
#X text 242 377 polyphonic aftertouch: channel \, pitch \, pressure;
#X text 211 419 channel aftertouch: channel \, pressure;
#X msg 82 340 midi_program 1 \$1;
#X msg 87 379 midi_polytouch 1 60 127;
#X msg 95 418 midi_touch 1 127;
#X obj 106 494 cnv 20 285 65 empty empty empty 20 12 0 14 #f8fc00 #404040 0;
#X text 192 137 the MIDI pitch can be a float \, but this is not part of MIDI standard and only supported by certain VST instruments.;
#X text 114 502 NOTE: MIDI messages are scheduled at the current logical time. This allows for *sample accurate* event proccessing - but the plugin has to actually support it!, f 42;
#X msg 108 468 midi <bytes>;
#X msg 230 468 sysex <bytes>;
#X text 191 469 resp.;
#X text 105 448 MIDI and SysEx messages sent *from* the plugin are output as;
#X msg 56 138 midi_note 1 60.5 127;
#X connect 1 0 0 0;
#X connect 2 0 0 0;
#X connect 3 0 0 0;
#X connect 4 0 0 0;
#X connect 5 0 4 0;
#X connect 6 0 4 0;
#X connect 7 0 0 0;
#X connect 8 0 0 0;
#X connect 9 0 8 0;
#X connect 10 0 22 0;
#X connect 22 0 0 0;
#X connect 23 0 0 0;
#X connect 24 0 0 0;
#X connect 32 0 0 0;
#X restore 213 451 pd midi;
#X f 13;
#X msg 306 351 param_dump;
#X msg 347 303 param_set \$1 \$2;
#X msg 397 350 param_list;
#X msg 323 261 0 \$1, f 5;
#X msg 169 253 close;
#X obj 321 239 r BOW;
#X obj 385 58 loadbang;
#X msg 131 224 open SWAM_Cello_3.vst3;
#X obj 661 436 s BOW;
#X msg 535 570 midi_note 1 \$1 99;
#X obj 534 536 nbx 5 17 -1e+37 1e+37 0 0 empty empty empty 0 -10 0 12 #fcfcfc #000000 #000000 0 256;
#X obj 630 314 mousestate;
#X msg 631 286 poll;
#X floatatom 602 351 5 0 0 0 - - - 0;
#X floatatom 667 349 5 0 0 0 - - - 0;
#X msg 676 283 reset;
#X obj 652 236 loadbang;
#X msg 531 610 midi_noteoff 1 60;
#X obj 446 653 s \$0-msg;
#X msg 392 261 102 \$1;
#X obj 392 237 r PB;
#X obj 595 408 s PB;
#X msg 470 90 1 0 \, 7 0 \, 8 1 \, 47 0.0125 \, 48 0.0125 \, 101 0.8 \,;
#X msg 356 575 midi_bend 1 0;
#X msg 385 545 midi_note 1 60 105;
#X obj 402 158 delay 1000;
#X obj 389 92 bng 19 250 50 0 empty empty empty 0 -10 0 12 #fcfcfc #000000 #000000;
#X obj 495 391 delay 4000;
#X msg 393 191 1 0 \, 7 0 \, 8 1 \, 10 0 \, 42 0.5 \, 43 0.5 \, 45 0.5 \, 47 48 \, 48 48 \, 101 0.8 \,;
#X floatatom 730 433 5 0 0 0 - - - 0;
#X obj 668 400 scale 0 900 0 1;
#X obj 601 374 scale 0 1439 0.5 1;
#X msg 362 455 49 \$1;
#X obj 364 480 t b l;
#X msg 327 421 0;
#X msg 241 577 param_set \$1 \$2;
#X msg 438 420 1;
#X msg 359 421 0.32;
#X msg 398 421 0.66;
#X text 351 400 Transpose;
#X obj 770 563 s PB;
#X obj 773 503 r fPITCH;
#X obj 760 614 r fVOL;
#X obj 757 655 s BOW;
#X obj 771 539 scale 0 4000 0.5 1;
#X floatatom 828 573 5 0 0 0 - - - 0;
#X floatatom 816 655 5 0 0 0 - - - 0;
#X msg 591 490 60;
#X msg 629 491 60.5;
#X text 47 77 Audio Setting: Block size = 512;
#X connect 0 0 5 0;
#X connect 0 1 5 1;
#X connect 0 2 6 0;
#X connect 1 0 0 0;
#X connect 3 0 2 0;
#X connect 4 0 3 0;
#X connect 9 0 2 0;
#X connect 10 0 2 0;
#X connect 11 0 2 0;
#X connect 12 0 10 0;
#X connect 13 0 2 0;
#X connect 14 0 12 0;
#X connect 15 0 35 0;
#X connect 16 0 2 0;
#X connect 18 0 27 0;
#X connect 19 0 18 0;
#X connect 20 1 22 0;
#X connect 20 2 23 0;
#X connect 21 0 20 0;
#X connect 22 0 40 0;
#X connect 23 0 39 0;
#X connect 24 0 20 0;
#X connect 25 0 24 0;
#X connect 25 0 21 0;
#X connect 26 0 27 0;
#X connect 28 0 10 0;
#X connect 29 0 28 0;
#X connect 32 0 27 0;
#X connect 33 0 27 0;
#X connect 34 0 37 0;
#X connect 34 0 36 0;
#X connect 34 0 46 0;
#X connect 35 0 34 0;
#X connect 35 0 16 0;
#X connect 36 0 33 0;
#X connect 36 0 32 0;
#X connect 37 0 10 0;
#X connect 41 0 42 0;
#X connect 42 0 33 0;
#X connect 42 1 44 0;
#X connect 43 0 41 0;
#X connect 44 0 27 0;
#X connect 45 0 41 0;
#X connect 46 0 41 0;
#X connect 47 0 41 0;
#X connect 50 0 53 0;
#X connect 51 0 52 0;
#X connect 51 0 55 0;
#X connect 53 0 49 0;
#X connect 53 0 54 0;
#X connect 56 0 18 0;
#X connect 57 0 18 0;
