#N canvas 1861 -110 1252 946 12;
#X obj 114 18 inlet;
#X obj 222 51 loadbang;
#X obj 182 247 - 0;
#X obj 198 217 pipe 2;
#X floatatom 303 178 5 0 0 0 - - - 0;
#X obj 201 130 metro 50;
#X obj 201 107 tgl 19 0 empty empty empty 0 -10 0 12 #fcfcfc #000000 #000000 0 1;
#X msg 201 88 1;
#X obj 188 178 f;
#X msg 278 109 2;
#X obj 185 366 outlet;
#X obj 341 15 inlet;
#X text 346 36 delta_t[ms];
#X connect 0 0 8 1;
#X connect 1 0 7 0;
#X connect 1 0 9 0;
#X connect 2 0 10 0;
#X connect 3 0 2 1;
#X connect 4 0 3 1;
#X connect 5 0 8 0;
#X connect 6 0 5 0;
#X connect 7 0 6 0;
#X connect 8 0 3 0;
#X connect 8 0 2 0;
#X connect 9 0 4 0;
#X connect 11 0 4 0;
